<svg width="56" height="56" viewBox="0 0 56 56" fill="none" xmlns="http://www.w3.org/2000/svg">
<path d="M55.0611 50.4003H52.2611V32.667C52.2607 32.1516 51.8425 31.734 51.327 31.7344C51.0229 31.7346 50.7379 31.883 50.5633 32.1322L37.4967 50.7989C37.2013 51.2213 37.3043 51.8033 37.7267 52.0985C37.8834 52.2081 38.0698 52.2669 38.2611 52.267H50.3944V55.067C50.3944 55.5824 50.8123 56.0003 51.3277 56.0003C51.8432 56.0003 52.2611 55.5824 52.2611 55.067V52.267H55.0611C55.5765 52.267 55.9944 51.8491 55.9944 51.3337C55.9944 50.8182 55.5765 50.4003 55.0611 50.4003ZM50.3944 50.4003H40.0531L50.3944 35.6275V50.4003Z" fill="black"/>
<path d="M38.2656 54.136H27.2159L37.4891 42.0391C37.5124 42.0113 37.5342 41.9824 37.5544 41.9523C39.4871 39.0918 38.8434 35.2191 36.0891 33.1379C32.7402 30.7316 28.0747 31.4959 25.6685 34.8448C24.7561 36.1147 24.2654 37.639 24.2656 39.2027C24.2656 39.7181 24.6835 40.136 25.199 40.136C25.7144 40.136 26.1323 39.7181 26.1323 39.2027C26.1319 36.1098 28.639 33.6024 31.7317 33.6021C32.904 33.602 34.0467 33.9697 34.999 34.6536C36.9283 36.1319 37.3776 38.8544 36.0256 40.8743L24.4878 54.4655C24.1542 54.8585 24.2025 55.4474 24.5956 55.781C24.7641 55.924 24.9779 56.0025 25.199 56.0027H38.2656C38.7811 56.0027 39.199 55.5848 39.199 55.0693C39.199 54.5539 38.7811 54.136 38.2656 54.136Z" fill="black"/>
<path d="M25.2205 49.4844C25.24 48.9693 24.8381 48.536 24.323 48.5165C24.3229 48.5165 24.3228 48.5165 24.3227 48.5165C12.1462 48.0646 2.37312 38.309 1.89933 26.1333H5.6C6.11543 26.1333 6.53333 25.7154 6.53333 25.2C6.53333 24.6846 6.11543 24.2667 5.6 24.2667H1.89933C2.36635 12.1124 12.1123 2.36682 24.2667 1.90027V4.66667C24.2667 5.1821 24.6846 5.6 25.2 5.6C25.7154 5.6 26.1333 5.1821 26.1333 4.66667V1.90027C38.1213 2.3639 47.7967 11.8566 48.4885 23.8336L44.8485 20.1936C44.4778 19.8354 43.887 19.8457 43.5288 20.2165C43.1795 20.5781 43.1795 21.1515 43.5288 21.5133L48.7387 26.7232C48.8368 26.842 48.9632 26.934 49.1064 26.9911C49.1429 27.002 49.18 27.0111 49.2175 27.0181C49.2815 27.0412 49.3478 27.0572 49.4153 27.0657C49.4247 27.0657 49.4331 27.0657 49.4424 27.0657C49.4517 27.0657 49.4601 27.0657 49.4685 27.0657C49.5396 27.0604 49.6098 27.0466 49.6776 27.0247C49.716 27.02 49.754 27.0129 49.7915 27.0032C49.9178 26.9583 50.0328 26.8863 50.1284 26.7923L55.4092 21.5133C55.7673 21.1426 55.7571 20.5518 55.3863 20.1936C55.0247 19.8443 54.4512 19.8443 54.0895 20.1936L50.3589 23.9213C49.6922 10.5432 38.661 0.0327833 25.2663 0.0130667C25.2429 0.0121333 25.2233 0 25.2 0C25.1767 0 25.1571 0.0121333 25.1337 0.0130667C11.2679 0.0320833 0.0320833 11.2679 0.0130667 25.1337C0.0130667 25.1571 0 25.1767 0 25.2C0 25.2233 0.0121333 25.2429 0.0130667 25.2663C0.0362833 38.7899 10.7393 49.8794 24.2536 50.3823H24.2881C24.7897 50.3821 25.2015 49.9856 25.2205 49.4844Z" fill="black"/>
<path d="M37.7405 12.6639C37.376 12.2995 36.7852 12.2995 36.4207 12.6639L26.3911 22.6926C25.6334 22.3547 24.7678 22.3547 24.0102 22.6926L19.2614 17.9438C18.8906 17.5857 18.2997 17.596 17.9417 17.9667C17.5924 18.3284 17.5924 18.9018 17.9417 19.2635L22.6811 24.003C22.0157 25.396 22.6055 27.0648 23.9986 27.7301C25.0679 28.2409 26.3431 28.0219 27.1807 27.1838C28.0229 26.3487 28.2398 25.07 27.7202 24.0039L37.7405 13.9836C38.1048 13.6192 38.1048 13.0284 37.7405 12.6639ZM25.8612 25.8629C25.8611 25.863 25.8611 25.863 25.861 25.8631C25.4919 26.216 24.9104 26.216 24.5413 25.8631C24.1767 25.4986 24.1767 24.9077 24.541 24.5431C24.9055 24.1785 25.4964 24.1785 25.861 24.5429C26.2256 24.9074 26.2256 25.4984 25.8612 25.8629Z" fill="black"/>
</svg>
