<svg width="29" height="29" viewBox="0 0 29 29" fill="none" xmlns="http://www.w3.org/2000/svg">
<path d="M14.5 8.46366L17.2803 10L16.7492 6.74621L19 4.44099L15.8903 3.9664L14.5 1L13.1097 3.9664L10 4.44099L12.2508 6.74621L11.7197 10L14.5 8.46366Z" fill="#FD3358"/>
<path d="M24.4409 9.29177L22.9203 6L21.3997 9.29177L18 9.81942L20.4602 12.3817L19.8793 16L22.9203 14.2919L25.9631 16L25.3805 12.3817L28 9.81942L24.4409 9.29177Z" fill="#FD3358"/>
<path d="M3.61952 12.3817L3.03694 16L6.07968 14.2919L9.12074 16L8.53984 12.3817L11 9.81942L7.60032 9.29177L6.07968 6L4.55905 9.29177L1 9.81942L3.61952 12.3817Z" fill="#FD3358"/>
<path d="M18 16C18 13.7946 16.4297 12 14.5 12C12.5703 12 11 13.7946 11 16C11 18.2054 12.5703 20 14.5 20C16.4297 20 18 18.2054 18 16Z" fill="#FD3358"/>
<path d="M9 25.5629V28H20V25.5629C20 22.4959 17.5324 20 14.5 20C11.4676 20 9 22.4959 9 25.5629Z" fill="#FD3358"/>
<path d="M26 27.1209C26 24.8488 24.268 23 22.1395 23C21.7401 23 21.3625 23.0837 21 23.2043C21.2186 23.9238 21.3674 24.6765 21.3674 25.4725V28H26V27.1209Z" fill="#FD3358"/>
<path d="M26 20C26 18.3455 24.4302 17 22.5 17C20.5698 17 19 18.3455 19 20C19 20.0955 19.0226 20.1857 19.0328 20.2789C19.8957 20.9531 20.5916 21.776 21.0387 22.7172C21.4849 22.8943 21.9768 23 22.5 23C24.4302 23 26 21.6545 26 20Z" fill="#FD3358"/>
<path d="M9.96719 20.2789C9.97744 20.1857 10 20.0955 10 20C10 18.3455 8.43024 17 6.5 17C4.56976 17 3 18.3455 3 20C3 21.6545 4.56976 23 6.5 23C7.02318 23 7.51514 22.8943 7.9613 22.7174C8.40837 21.776 9.10426 20.9531 9.96719 20.2789Z" fill="#FD3358"/>
<path d="M3 27.1209V28H7.63265V25.4725C7.63265 24.6765 7.78144 23.9238 8 23.2043C7.63747 23.0837 7.25986 23 6.86054 23C4.73201 23 3 24.8488 3 27.1209Z" fill="#FD3358"/>
</svg>
