<svg width="63" height="63" viewBox="0 0 63 63" fill="none" xmlns="http://www.w3.org/2000/svg">
<path d="M31.6232 4.92191C30.9427 4.91699 30.3878 5.46455 30.3828 6.14377C30.3779 6.82299 30.9243 7.37793 31.6047 7.38285C32.2839 7.38777 32.8389 6.84144 32.8438 6.16222C32.8487 5.483 32.3024 4.92806 31.6232 4.92191Z" fill="black"/>
<path d="M31.5608 12.3049C26.8099 12.2712 22.919 16.104 22.8831 20.8535C22.8473 25.6027 26.6821 29.4955 31.4316 29.5313C31.4537 29.5314 31.4756 29.5315 31.4976 29.5315C36.2168 29.5315 40.0737 25.7102 40.1094 20.9827C40.1452 16.2337 36.3105 12.3407 31.5608 12.3049ZM31.4973 27.0707C31.4818 27.0707 31.4656 27.0706 31.4501 27.0704C28.0576 27.0448 25.3183 24.2642 25.3439 20.8719C25.3694 17.4949 28.1241 14.7655 31.4951 14.7655C31.5106 14.7655 31.5269 14.7656 31.5424 14.7657C34.9349 14.7913 37.6742 17.5719 37.6486 20.9642C37.623 24.3413 34.8683 27.0707 31.4973 27.0707Z" fill="black"/>
<path d="M36.8685 5.85233C36.2284 5.62518 35.5247 5.96049 35.2976 6.60107C35.0706 7.24165 35.4059 7.94487 36.0463 8.17201C41.4662 10.0929 45.0782 15.2549 45.0349 21.0168C45.0299 21.6962 45.5766 22.2513 46.2562 22.2565C46.2592 22.2565 46.2624 22.2565 46.2656 22.2565C46.9407 22.2565 47.4907 21.7116 47.4959 21.0352C47.547 14.2249 43.2762 8.12341 36.8685 5.85233Z" fill="black"/>
<path d="M39.0464 46.3201C47.2306 35.7854 52.3453 30.292 52.4144 21.0753C52.501 9.47894 43.0901 0 31.4946 0C20.0345 0 10.6659 9.2812 10.5788 20.7615C10.5084 30.2281 15.7181 35.7141 23.9588 46.3184C15.7608 47.5434 10.5788 50.6217 10.5788 54.3868C10.5788 56.9089 12.9101 59.1721 17.1433 60.7594C20.9962 62.2043 26.0937 63 31.4966 63C36.8995 63 41.9969 62.2043 45.8499 60.7594C50.0831 59.172 52.4144 56.9088 52.4144 54.3867C52.4144 50.6237 47.2371 47.5461 39.0464 46.3201ZM13.0396 20.7801C13.1164 10.6497 21.3821 2.46094 31.4949 2.46094C41.7273 2.46094 50.0298 10.8267 49.9535 21.0569C49.8881 29.8098 44.4639 35.2038 35.8042 46.4925C34.2596 48.505 32.8411 50.4079 31.4984 52.2692C30.1597 50.4067 28.7695 48.538 27.2018 46.4918C18.1841 34.7304 12.973 29.7441 13.0396 20.7801ZM31.4966 60.5392C20.9329 60.5392 13.0396 57.2911 13.0396 54.3868C13.0396 52.233 17.7583 49.5122 25.6921 48.57C27.4459 50.8711 28.9835 52.9617 30.4915 55.0968C30.7219 55.4229 31.0962 55.6171 31.4955 55.6173C31.4959 55.6173 31.4962 55.6173 31.4966 55.6173C31.8955 55.6173 32.2697 55.4239 32.5004 55.0984C33.9942 52.9911 35.5739 50.849 37.3127 48.5714C45.2391 49.5145 49.9535 52.2345 49.9535 54.3869C49.9534 57.2911 42.0603 60.5392 31.4966 60.5392Z" fill="black"/>
</svg>
