<svg width="58" height="58" viewBox="0 0 58 58" fill="none" xmlns="http://www.w3.org/2000/svg">
<path d="M18.377 50H25.1738C26.3031 50 27.2227 50.9195 27.2227 52.0488C27.2227 53.1782 26.3031 54.0977 25.1738 54.0977H18.377C17.2477 54.0977 16.3281 53.1782 16.3281 52.0488C16.3281 50.9195 17.2477 50 18.377 50ZM18.377 53.3984H25.1738C25.9183 53.3984 26.5234 52.7935 26.5234 52.0488C26.5234 51.3042 25.9185 50.6992 25.1738 50.6992H18.377C17.6323 50.6992 17.0273 51.3042 17.0273 52.0488C17.0273 52.7935 17.6323 53.3984 18.377 53.3984Z" fill="black" stroke="black"/>
<path d="M39.9688 6.79688V7.29688H40.4688H54.0625C54.2556 7.29688 54.4121 7.45337 54.4121 7.64648V31.4355C54.4121 31.6287 54.2556 31.7852 54.0625 31.7852H40.4688H39.9688V32.2852V53.752C39.9688 55.8182 38.287 57.5 36.2207 57.5H7.33398C5.2677 57.5 3.58594 55.8182 3.58594 53.752V4.24805C3.58594 2.18176 5.2677 0.5 7.33398 0.5H36.2207C38.287 0.5 39.9688 2.18176 39.9688 4.24805V6.79688ZM30.9692 20.2115L30.6662 19.9807L30.3632 20.2115L19.9296 28.1608L19.9296 28.1608C19.1768 28.7345 18.7285 29.6394 18.7285 30.5859V30.5861V31.0861H19.2285H53.213H53.713V30.5861C53.713 29.6396 53.2649 28.7345 52.5119 28.1609C52.5119 28.1609 52.5119 28.1609 52.5118 28.1609L42.0782 20.2114L41.7752 19.9806L41.4722 20.2114L38.4921 22.4819C38.4921 22.4819 38.4921 22.4819 38.4921 22.4819C37.8242 22.9907 37.0232 23.2458 36.2206 23.2458C35.4179 23.2458 34.6169 22.9907 33.9491 22.4819L30.9692 20.2115ZM19.5315 11.4972L18.7285 10.8853V11.8949V27.1875V28.197L19.5315 27.5852L29.5674 19.9388L30.0894 19.5411L29.5674 19.1434L19.5315 11.4972ZM42.8739 19.1433L42.3519 19.541L42.8739 19.9387L52.9099 27.5851L53.7129 28.1969V27.1874V11.8945V10.885L52.9099 11.4968L42.8739 19.1433ZM52.5117 10.9212L52.2087 10.5235L52.5117 10.9212C53.2645 10.3476 53.7128 9.44264 53.7128 8.49609V7.99609H53.2128H19.2286H18.7286V8.49609L18.7286 8.50357L18.7286 8.50508C18.7315 9.44816 19.1789 10.3494 19.9294 10.9212L20.2324 10.5235L19.9294 10.9212L34.3728 21.9257L34.3728 21.9257C35.4614 22.755 36.9796 22.755 38.0683 21.9257L38.0683 21.9257L52.5117 10.9212ZM38.7695 7.29688H39.2695V6.79688V4.24805C39.2695 2.56641 37.9022 1.19922 36.2207 1.19922H7.33398C5.65249 1.19922 4.28516 2.56641 4.28516 4.24805V53.752C4.28516 55.4336 5.65249 56.8008 7.33398 56.8008H36.2207C37.9022 56.8008 39.2695 55.4336 39.2695 53.752V32.2852V31.7852H38.7695H37.0703H36.5703V32.2852V46.9551C36.5703 47.1482 36.4138 47.3047 36.2207 47.3047H7.33398C7.14085 47.3047 6.98438 47.1482 6.98438 46.9551V33.1348C6.98438 32.9417 7.14085 32.7852 7.33398 32.7852C7.52712 32.7852 7.68359 32.9417 7.68359 33.1348V46.1055V46.6055H8.18359H35.3711H35.8711V46.1055V32.2852V31.7852H35.3711H18.3789C18.1858 31.7852 18.0293 31.6287 18.0293 31.4355V7.64648C18.0293 7.45337 18.1858 7.29688 18.3789 7.29688H35.3711H35.8711V6.79688V5.09766V4.59766H35.3711H8.18359H7.68359V5.09766V29.7363C7.68359 29.9294 7.52712 30.0859 7.33398 30.0859C7.14085 30.0859 6.98438 29.9294 6.98438 29.7363V4.24805C6.98438 4.05493 7.14085 3.89844 7.33398 3.89844H36.2207C36.4138 3.89844 36.5703 4.05493 36.5703 4.24805V6.79688V7.29688H37.0703H38.7695Z" fill="black" stroke="black"/>
</svg>
