<svg width="19" height="14" viewBox="0 0 19 14" fill="none" xmlns="http://www.w3.org/2000/svg">
<path d="M17.7121 4.96484C16.9035 5.59766 15.884 6.37109 12.2981 8.97266C11.5949 9.5 10.2942 10.6602 9.06368 10.6602C7.79806 10.6602 6.53243 9.5 5.79415 8.97266C2.20822 6.37109 1.18868 5.59766 0.380091 4.96484C0.239466 4.85938 0.0636845 4.96484 0.0636845 5.14062V12.3125C0.0636845 13.2617 0.801966 14 1.75118 14H16.3762C17.2902 14 18.0637 13.2617 18.0637 12.3125V5.14062C18.0637 4.96484 17.8527 4.85938 17.7121 4.96484ZM9.06368 9.5C9.87228 9.53516 11.0324 8.48047 11.6301 8.05859C16.3059 4.68359 16.6574 4.36719 17.7121 3.52344C17.9231 3.38281 18.0637 3.13672 18.0637 2.85547V2.1875C18.0637 1.27344 17.2902 0.5 16.3762 0.5H1.75118C0.801966 0.5 0.0636845 1.27344 0.0636845 2.1875V2.85547C0.0636845 3.13672 0.169153 3.38281 0.380091 3.52344C1.43478 4.36719 1.78634 4.68359 6.46212 8.05859C7.05978 8.48047 8.21993 9.53516 9.06368 9.5Z" fill="#9C96A4"/>
</svg>
