<svg width="26" height="26" viewBox="0 0 26 26" fill="none" xmlns="http://www.w3.org/2000/svg">
<g clip-path="url(#clip0_1402_36205)">
<path d="M15.4375 0H2.97917C1.3325 0 0 1.3325 0 2.97917V19.7708C0 21.4175 1.3325 22.75 2.97917 22.75H11.8083C10.8983 21.3092 10.2917 19.6083 10.2917 17.6583V15.015C10.1292 15.1125 9.945 15.1667 9.75 15.1667H4.33333C3.7375 15.1667 3.25 14.6792 3.25 14.0833C3.25 13.4875 3.7375 13 4.33333 13H9.75C9.95583 13 10.14 13.0542 10.3025 13.1517C10.3458 12.2308 10.7792 11.3858 11.4617 10.8333H4.33333C3.7375 10.8333 3.25 10.3458 3.25 9.75C3.25 9.15417 3.7375 8.66667 4.33333 8.66667H14.0833C14.5383 8.66667 14.9283 8.94833 15.0908 9.34917L18.1783 8.29833C18.2542 8.26583 18.33 8.24417 18.4167 8.23333V2.97917C18.4167 1.3325 17.0842 0 15.4375 0V0ZM8.66667 6.5H4.33333C3.7375 6.5 3.25 6.0125 3.25 5.41667C3.25 4.82083 3.7375 4.33333 4.33333 4.33333H8.66667C9.2625 4.33333 9.75 4.82083 9.75 5.41667C9.75 6.0125 9.2625 6.5 8.66667 6.5Z" fill="#2CA2FB"/>
<path d="M25.2692 12.2816L19.5817 10.3468C19.3553 10.2698 19.1094 10.2698 18.8829 10.3468L13.1954 12.2816C12.7567 12.4311 12.4609 12.8438 12.4609 13.3075V17.6603C12.4609 23.1496 18.5482 25.8016 18.8071 25.9121C18.9436 25.9695 19.0888 25.9977 19.2329 25.9977C19.3769 25.9977 19.5221 25.9695 19.6575 25.911C19.9164 25.8005 26.0037 23.1496 26.0037 17.6603V13.3075C26.0037 12.8428 25.709 12.4311 25.2692 12.2816ZM23.0787 16.356L19.8287 20.6893C19.6402 20.9407 19.3531 21.0978 19.0389 21.1194C19.0129 21.1216 18.9869 21.1227 18.962 21.1227C18.6749 21.1227 18.3998 21.01 18.1961 20.8053L16.0294 18.6386C15.6059 18.215 15.6059 17.5303 16.0294 17.1068C16.453 16.6832 17.1377 16.6832 17.5613 17.1068L18.845 18.3905L21.3454 15.056C21.7039 14.5782 22.3832 14.4797 22.8609 14.8393C23.3409 15.1979 23.4384 15.8772 23.0787 16.356Z" fill="#2CA2FB"/>
</g>
<defs>
<clipPath id="clip0_1402_36205">
<rect width="26" height="26" fill="white"/>
</clipPath>
</defs>
</svg>
