<svg width="28" height="28" viewBox="0 0 28 28" fill="none" xmlns="http://www.w3.org/2000/svg">
<path d="M23.9545 14.9453H21.7891C22.0098 15.5496 22.1304 16.2018 22.1304 16.8815V25.0655C22.1304 25.3489 22.081 25.6209 21.9913 25.8739H25.5712C26.9085 25.8739 27.9964 24.7859 27.9964 23.4487V18.9872C27.9964 16.7585 26.1832 14.9453 23.9545 14.9453Z" fill="#FCAF3D"/>
<path d="M5.86607 16.8815C5.86607 16.2017 5.98665 15.5496 6.20737 14.9453H4.04196C1.81322 14.9453 0 16.7585 0 18.9873V23.4487C0 24.786 1.0879 25.8739 2.42518 25.8739H6.00514C5.91539 25.6208 5.86607 25.3489 5.86607 25.0655V16.8815Z" fill="#FCAF3D"/>
<path d="M16.4768 12.8438H11.5263C9.2976 12.8438 7.48438 14.657 7.48438 16.8857V25.0697C7.48438 25.5161 7.8463 25.8781 8.29277 25.8781H19.7103C20.1568 25.8781 20.5187 25.5162 20.5187 25.0697V16.8857C20.5187 14.657 18.7055 12.8438 16.4768 12.8438Z" fill="#FCAF3D"/>
<path d="M14.0016 2.125C11.3212 2.125 9.14062 4.30561 9.14062 6.98602C9.14062 8.80411 10.1441 10.392 11.626 11.2256C12.3289 11.621 13.1393 11.847 14.0016 11.847C14.8639 11.847 15.6743 11.621 16.3772 11.2256C17.8591 10.392 18.8625 8.80405 18.8625 6.98602C18.8625 4.30567 16.6819 2.125 14.0016 2.125Z" fill="#FCAF3D"/>
<path d="M5.46348 6.65625C3.45891 6.65625 1.82812 8.28703 1.82812 10.2916C1.82812 12.2962 3.45891 13.927 5.46348 13.927C5.97197 13.927 6.45617 13.8216 6.89603 13.6323C7.65651 13.3049 8.28356 12.7253 8.67157 11.9993C8.94391 11.4898 9.09884 10.9085 9.09884 10.2916C9.09884 8.28709 7.46806 6.65625 5.46348 6.65625Z" fill="#FCAF3D"/>
<path d="M22.5338 6.65625C20.5292 6.65625 18.8984 8.28703 18.8984 10.2916C18.8984 10.9086 19.0534 11.4899 19.3257 11.9993C19.7137 12.7254 20.3408 13.305 21.1013 13.6323C21.5411 13.8216 22.0253 13.927 22.5338 13.927C24.5384 13.927 26.1692 12.2962 26.1692 10.2916C26.1692 8.28703 24.5384 6.65625 22.5338 6.65625Z" fill="#FCAF3D"/>
</svg>
