<svg width="17" height="19" viewBox="0 0 17 19" fill="none" xmlns="http://www.w3.org/2000/svg">
<path d="M12.7482 11.5C11.9397 11.5 11.2014 11.7812 10.6389 12.2383L7.01778 9.98828C7.05293 9.8125 7.12325 9.46094 7.12325 9.25C7.12325 9.07422 7.05293 8.72266 7.01778 8.54688L10.6389 6.29688C11.2014 6.75391 11.9397 7 12.7482 7C14.6115 7 16.1232 5.52344 16.1232 3.625C16.1232 1.76172 14.6115 0.25 12.7482 0.25C10.8498 0.25 9.37325 1.76172 9.37325 3.625C9.37325 3.90625 9.37325 4.15234 9.44356 4.36328L5.82247 6.61328C5.25997 6.15625 4.52168 5.875 3.74825 5.875C1.84981 5.875 0.373247 7.38672 0.373247 9.25C0.373247 11.1484 1.84981 12.625 3.74825 12.625C4.52168 12.625 5.25997 12.3789 5.82247 11.9219L9.44356 14.1719C9.4084 14.3477 9.37325 14.6992 9.37325 14.875C9.37325 16.7734 10.8498 18.25 12.7482 18.25C14.6115 18.25 16.1232 16.7734 16.1232 14.875C16.1232 13.0117 14.6115 11.5 12.7482 11.5Z" fill="#9C96A4"/>
</svg>
