<svg width="32" height="32" viewBox="0 0 32 32" fill="none" xmlns="http://www.w3.org/2000/svg">
<g clip-path="url(#clip0_1402_36254)">
<path d="M19.055 13.8125H12.9401C12.3907 13.8125 11.9453 14.2579 11.9453 14.8073V31.6696C11.9453 31.8527 12.0938 32.0012 12.2769 32.0012H19.7182C19.9013 32.0012 20.0498 31.8527 20.0498 31.6696V14.8073C20.0498 14.2579 19.6044 13.8125 19.055 13.8125Z" fill="#0DCA95"/>
<path d="M29.1559 19.7969H23.0417C22.4923 19.7969 22.0469 20.2423 22.0469 20.7917V31.6684C22.0469 31.8515 22.1954 32 22.3785 32H29.8191C30.0022 32 30.1507 31.8515 30.1507 31.6684V20.7917C30.1507 20.2423 29.7053 19.7969 29.1559 19.7969Z" fill="#0DCA95"/>
<path d="M8.96057 24.1875H2.84639C2.29698 24.1875 1.85156 24.6329 1.85156 25.1823V31.6646C1.85156 31.8477 2.00006 31.9962 2.18317 31.9962H9.62378C9.8069 31.9962 9.95539 31.8477 9.95539 31.6646V25.1823C9.95539 24.6329 9.50997 24.1875 8.96057 24.1875Z" fill="#0DCA95"/>
<path d="M20.3586 3.06155L18.1622 2.44443C18.0086 2.40125 17.8757 2.30416 17.7879 2.17099L16.5533 0.298198C16.2911 -0.0993994 15.7079 -0.0993994 15.4458 0.298198L14.2112 2.17099C14.1234 2.30423 13.9905 2.40132 13.8369 2.44443L11.6405 3.06155C11.1794 3.19114 11.0034 3.75176 11.3079 4.12157L12.7221 5.83936C12.8274 5.96723 12.881 6.12985 12.8724 6.29526L12.754 8.5793C12.729 9.06199 13.2122 9.40845 13.6613 9.22992L15.7546 8.39785C15.9119 8.33531 16.0872 8.33531 16.2445 8.39785L18.3378 9.22992C18.787 9.40845 19.2701 9.06199 19.2451 8.5793L19.1267 6.29526C19.1182 6.12985 19.1718 5.96723 19.277 5.83936L20.6912 4.12157C20.9957 3.75176 20.8198 3.19108 20.3586 3.06155Z" fill="#0DCA95"/>
<path d="M5.67015 9.62996L8.05256 8.50382C8.5493 8.26905 8.7616 7.676 8.52682 7.17932C8.29198 6.68257 7.69893 6.47021 7.20231 6.70505L4.81991 7.83119C4.32316 8.06597 4.11087 8.65902 4.34565 9.1557C4.58062 9.65278 5.17387 9.86461 5.67015 9.62996Z" fill="#0DCA95"/>
<path d="M24.8051 3.53475L27.139 2.42473C27.6352 2.18876 27.8461 1.59525 27.6102 1.0991C27.3741 0.603011 26.7807 0.391844 26.2845 0.627948L23.9506 1.73797C23.4545 1.97394 23.2435 2.56746 23.4795 3.06361C23.7156 3.56022 24.3095 3.77053 24.8051 3.53475Z" fill="#0DCA95"/>
<path d="M4.81991 2.4257L7.20231 3.55184C7.33967 3.61677 7.48431 3.64747 7.62677 3.64747C7.99956 3.64747 8.35697 3.43697 8.52682 3.07757C8.76167 2.58089 8.5493 1.98784 8.05256 1.75307L5.67015 0.626926C5.17341 0.392081 4.58043 0.604443 4.34565 1.10119C4.11087 1.59787 4.32316 2.19092 4.81991 2.4257Z" fill="#0DCA95"/>
<path d="M23.9506 8.51846L26.2845 9.62842C26.7808 9.86446 27.3743 9.65336 27.6102 9.15727C27.8462 8.66112 27.6352 8.06754 27.139 7.83164L24.8051 6.72168C24.3088 6.48564 23.7154 6.69668 23.4795 7.19283C23.2435 7.68898 23.4545 8.28256 23.9506 8.51846Z" fill="#0DCA95"/>
</g>
<defs>
<clipPath id="clip0_1402_36254">
<rect width="32" height="32" fill="white"/>
</clipPath>
</defs>
</svg>
